<svg id="Layer_1" enable-background="new 0 0 512 512" height="512" viewBox="0 0 512 512" width="512" xmlns="http://www.w3.org/2000/svg"><g><path d="m143.533 238.867h-31.71c-8.077 0-15.027-6.207-15.407-14.275-.406-8.614 6.458-15.725 14.983-15.725 9.372 0 17.133-7.557 17.133-17.133v-18.2c0-24.853 20.147-45 45-45h18.2c9.338 0 17.133-7.51 17.133-17.117v-.02c0-6.47 4.083-12.375 10.268-14.272 10.298-3.158 19.732 4.458 19.732 14.276v32.133c.002 53.477-43.53 95.333-95.332 95.333z" fill="#e95e3f"/><path d="m111.4 238.867h-96.4c-8.284 0-15-6.716-15-15v-208.867c0-8.284 6.716-15 15-15h208.867c8.284 0 15 6.716 15 15v96.4c0 26.577-21.65 47.133-47.133 47.133h-18.2c-8.284 0-15 6.716-15 15v18.2c-.001 26.574-21.646 47.134-47.134 47.134z" fill="#ffc74c"/><path d="m158.533 191.733v-18.2c0-8.284 6.716-15 15-15h18.2c25.483 0 47.133-20.556 47.133-47.133v-96.4c0-8.284-6.716-15-15-15h-104.433v238.163c21.84-3.784 39.1-22.703 39.1-46.43z" fill="#ff8f48"/><path d="m167.633 94.267h-96.4c-8.284 0-15-6.716-15-15s6.716-15 15-15h96.4c8.284 0 15 6.716 15 15s-6.716 15-15 15z" fill="#162d46"/><path d="m87.3 158.533h-16.067c-8.284 0-15-6.716-15-15s6.716-15 15-15h16.067c8.284 0 15 6.716 15 15s-6.716 15-15 15z" fill="#162d46"/><path d="m182.633 79.267c0-8.284-6.716-15-15-15h-48.2v30h48.2c8.284 0 15-6.716 15-15z" fill="#0f1e32"/><path d="m416.667 238.867h-31.71c-8.077 0-15.027-6.207-15.407-14.275-.406-8.614 6.458-15.725 14.983-15.725 9.372 0 17.133-7.557 17.133-17.133v-18.2c0-24.853 20.147-45 45-45h18.2c9.338 0 17.133-7.51 17.133-17.117v-.02c0-6.47 4.083-12.375 10.268-14.272 10.299-3.159 19.733 4.456 19.733 14.275v32.133c0 53.478-43.532 95.334-95.333 95.334z" fill="#c80046"/><path d="m384.533 238.867h-96.4c-8.284 0-15-6.716-15-15v-208.867c0-8.284 6.716-15 15-15h208.867c8.284 0 15 6.716 15 15v96.4c0 26.577-21.65 47.133-47.133 47.133h-18.2c-8.284 0-15 6.716-15 15v18.2c0 26.574-21.646 47.134-47.134 47.134z" fill="#ff5651"/><path d="m431.667 191.733v-18.2c0-8.284 6.716-15 15-15h18.2c25.483 0 47.133-20.556 47.133-47.133v-96.4c0-8.284-6.716-15-15-15h-104.433v238.163c21.839-3.784 39.1-22.703 39.1-46.43z" fill="#e92354"/><path d="m440.767 94.267h-96.4c-8.284 0-15-6.716-15-15s6.716-15 15-15h96.4c8.284 0 15 6.716 15 15s-6.716 15-15 15z" fill="#162d46"/><path d="m455.767 79.267c0-8.284-6.716-15-15-15h-48.2v30h48.2c8.284 0 15-6.716 15-15z" fill="#0f1e32"/><path d="m143.533 512h-31.71c-8.077 0-15.027-6.207-15.407-14.275-.405-8.614 6.459-15.725 14.984-15.725 9.372 0 17.133-7.557 17.133-17.133v-18.2c0-24.853 20.147-45 45-45h18.2c9.338 0 17.133-7.51 17.133-17.117v-.02c0-6.47 4.083-12.375 10.268-14.272 10.298-3.158 19.732 4.458 19.732 14.276v32.133c.001 53.477-43.531 95.333-95.333 95.333z" fill="#e95e3f"/><path d="m111.4 512h-96.4c-8.284 0-15-6.716-15-15v-208.867c0-8.284 6.716-15 15-15h208.867c8.284 0 15 6.716 15 15v96.4c0 26.577-21.65 47.133-47.133 47.133h-18.2c-8.284 0-15 6.716-15 15v18.2c-.001 26.574-21.646 47.134-47.134 47.134z" fill="#ffc74c"/><path d="m158.533 464.867v-18.2c0-8.284 6.716-15 15-15h18.2c25.483 0 47.133-20.556 47.133-47.133v-96.4c0-8.284-6.716-15-15-15h-104.433v238.163c21.84-3.785 39.1-22.704 39.1-46.43z" fill="#ff8f48"/><path d="m167.633 367.4h-96.4c-8.284 0-15-6.716-15-15s6.716-15 15-15h96.4c8.284 0 15 6.716 15 15s-6.716 15-15 15z" fill="#162d46"/><path d="m182.633 352.4c0-8.284-6.716-15-15-15h-48.2v30h48.2c8.284 0 15-6.716 15-15z" fill="#0f1e32"/><path d="m416.667 512h-31.71c-8.077 0-15.027-6.207-15.407-14.275-.406-8.614 6.458-15.725 14.983-15.725 9.372 0 17.133-7.557 17.133-17.133v-18.2c0-24.853 20.147-45 45-45h18.2c9.338 0 17.133-7.51 17.133-17.117v-.02c0-6.47 4.083-12.375 10.268-14.272 10.298-3.158 19.732 4.458 19.732 14.276v32.133c.001 53.477-43.531 95.333-95.332 95.333z" fill="#e95e3f"/><path d="m384.533 512h-96.4c-8.284 0-15-6.716-15-15v-208.867c0-8.284 6.716-15 15-15h208.867c8.284 0 15 6.716 15 15v96.4c0 26.577-21.65 47.133-47.133 47.133h-18.2c-8.284 0-15 6.716-15 15v18.2c0 26.574-21.646 47.134-47.134 47.134z" fill="#ffc74c"/><path d="m431.667 464.867v-18.2c0-8.284 6.716-15 15-15h18.2c25.483 0 47.133-20.556 47.133-47.133v-96.4c0-8.284-6.716-15-15-15h-104.433v238.163c21.839-3.785 39.1-22.704 39.1-46.43z" fill="#ff8f48"/><path d="m440.767 367.4h-96.4c-8.284 0-15-6.716-15-15s6.716-15 15-15h96.4c8.284 0 15 6.716 15 15s-6.716 15-15 15z" fill="#162d46"/><path d="m360.433 431.667h-16.066c-8.284 0-15-6.716-15-15s6.716-15 15-15h16.066c8.284 0 15 6.716 15 15s-6.716 15-15 15z" fill="#162d46"/><path d="m455.767 352.4c0-8.284-6.716-15-15-15h-48.2v30h48.2c8.284 0 15-6.716 15-15z" fill="#0f1e32"/></g></svg>